<svg xmlns:dc="http://purl.org/dc/elements/1.1/" xmlns:cc="http://creativecommons.org/ns#" xmlns:rdf="http://www.w3.org/1999/02/22-rdf-syntax-ns#" xmlns:svg="http://www.w3.org/2000/svg" xmlns="http://www.w3.org/2000/svg" xmlns:sodipodi="http://sodipodi.sourceforge.net/DTD/sodipodi-0.dtd" xmlns:inkscape="http://www.inkscape.org/namespaces/inkscape" version="1.1" x="0px" y="0px" viewBox="0 0 100 100"><g transform="translate(0,-952.36218)"><path style="font-size:medium;font-style:normal;font-variant:normal;font-weight:normal;font-stretch:normal;text-indent:0;text-align:start;text-decoration:none;line-height:normal;letter-spacing:normal;word-spacing:normal;text-transform:none;direction:ltr;block-progression:tb;writing-mode:lr-tb;text-anchor:start;baseline-shift:baseline;opacity:1;color:#000000;fill:#000000;fill-opacity:1;stroke:none;stroke-width:2;marker:none;visibility:visible;display:inline;overflow:visible;enable-background:accumulate;font-family:Sans;-inkscape-font-specification:Sans" d="M 19.8125 14 A 1.0001 1.0001 0 0 0 19 15 L 19 24.09375 C 17.104271 24.031322 15.112435 24 13 24 A 1.0001 1.0001 0 0 0 12.8125 24 A 1.0001 1.0001 0 0 0 12 25 L 12 74 A 1.0001 1.0001 0 0 0 13 75 C 22.456194 74.937 29.518712 75.52055 35.1875 77.15625 C 40.841702 78.78785 45.136387 81.43105 49.25 85.65625 C 49.26061 85.66725 49.27064 85.6765 49.28125 85.6875 A 1.0001 1.0001 0 0 0 49.3125 85.71875 A 1.0001 1.0001 0 0 0 49.34375 85.75 A 1.0001 1.0001 0 0 0 49.375 85.78125 A 1.0001 1.0001 0 0 0 49.4375 85.8125 A 1.0001 1.0001 0 0 0 49.46875 85.84375 A 1.0001 1.0001 0 0 0 49.53125 85.875 A 1.0001 1.0001 0 0 0 49.5625 85.90625 A 1.0001 1.0001 0 0 0 49.59375 85.90625 A 1.0001 1.0001 0 0 0 49.65625 85.9375 A 1.0001 1.0001 0 0 0 49.6875 85.9375 A 1.0001 1.0001 0 0 0 49.75 85.96875 A 1.0001 1.0001 0 0 0 49.8125 85.96875 A 1.0001 1.0001 0 0 0 49.84375 86 A 1.0001 1.0001 0 0 0 49.90625 86 A 1.0001 1.0001 0 0 0 49.9375 86 A 1.0001 1.0001 0 0 0 50 86 A 1.0001 1.0001 0 0 0 50.03125 86 A 1.0001 1.0001 0 0 0 50.21875 85.96875 A 1.0001 1.0001 0 0 0 50.5 85.84375 A 1.0001 1.0001 0 0 0 50.5625 85.84375 A 1.0001 1.0001 0 0 0 50.59375 85.8125 A 1.0001 1.0001 0 0 0 50.71875 85.6875 A 1.0001 1.0001 0 0 0 50.84375 85.5625 C 54.92849 81.3941 59.202054 78.77525 64.8125 77.15625 C 70.481288 75.52055 77.543806 74.9373 87 75 A 1.0001 1.0001 0 0 0 88 74 L 88 25 A 1.0001 1.0001 0 0 0 87 24 C 84.887565 24 82.895729 24.031322 81 24.09375 L 81 15 A 1.0001 1.0001 0 0 0 80 14 C 73.230865 14 66.339962 14.54839 60.65625 17.46875 C 55.89749 19.913859 52.057888 24.080145 50 30.6875 C 47.942112 24.080145 44.10251 19.913859 39.34375 17.46875 C 33.660038 14.54839 26.769135 14 20 14 A 1.0001 1.0001 0 0 0 19.8125 14 z M 21 16.0625 C 27.300851 16.1248 33.484017 16.7209 38.40625 19.25 C 43.221607 21.724192 46.914673 25.917511 48.625 33.375 C 44.865994 30.033111 40.746245 27.718354 35.71875 26.28125 C 31.546867 25.088723 26.756834 24.464735 21 24.1875 L 21 16.0625 z M 79 16.0625 L 79 24.1875 C 73.243166 24.464735 68.453133 25.088723 64.28125 26.28125 C 59.253755 27.720403 55.134006 30.033087 51.375 33.375 C 53.085327 25.917511 56.778393 21.724192 61.59375 19.25 C 66.515983 16.7209 72.699149 16.1248 79 16.0625 z M 14 26.03125 C 22.898058 26.07655 29.743835 26.63143 35.1875 28.1875 C 40.727795 29.771191 44.96432 32.332783 49 36.40625 L 49 82.71875 C 45.144873 79.183277 40.947994 76.718599 35.75 75.21875 C 30.014521 73.56375 22.995352 73.01935 14 73.03125 L 14 26.03125 z M 86 26.03125 L 86 73.03125 C 77.004648 73.01925 69.985479 73.56375 64.25 75.21875 C 59.052006 76.718599 54.855127 79.183277 51 82.71875 L 51 36.40625 C 55.03568 32.332783 59.272205 29.771191 64.8125 28.1875 C 70.256165 26.63143 77.101942 26.07657 86 26.03125 z " transform="translate(0,952.36218)"/></g></svg>